<?xml version="1.0" encoding="UTF-8" standalone="no"?>
<!-- Created with Inkscape (http://www.inkscape.org/) -->

<svg
   width="720"
   height="720"
   viewBox="0 0 720 720"
   version="1.1"
   id="svg1"
   xml:space="preserve"
   inkscape:version="1.3.2 (091e20e, 2023-11-25, custom)"
   sodipodi:docname="Head Mono - コピー.svg"
   inkscape:export-filename="WHSLogo.webp"
   inkscape:export-xdpi="13.333333"
   inkscape:export-ydpi="13.333333"
   xmlns:inkscape="http://www.inkscape.org/namespaces/inkscape"
   xmlns:sodipodi="http://sodipodi.sourceforge.net/DTD/sodipodi-0.dtd"
   xmlns="http://www.w3.org/2000/svg"
   xmlns:svg="http://www.w3.org/2000/svg"><sodipodi:namedview
     id="namedview1"
     pagecolor="#ffffff"
     bordercolor="#666666"
     borderopacity="1.0"
     inkscape:showpageshadow="2"
     inkscape:pageopacity="0.0"
     inkscape:pagecheckerboard="0"
     inkscape:deskcolor="#d1d1d1"
     inkscape:document-units="px"
     inkscape:zoom="1.0527778"
     inkscape:cx="246.96569"
     inkscape:cy="381.37202"
     inkscape:window-width="1920"
     inkscape:window-height="1111"
     inkscape:window-x="1791"
     inkscape:window-y="1360"
     inkscape:window-maximized="1"
     inkscape:current-layer="layer1" /><defs
     id="defs1" /><g
     inkscape:label="Layer 1"
     inkscape:groupmode="layer"
     id="layer1"><g
       id="Background"
       transform="matrix(1.600476,0,0,1.6226037,-300.61229,-71.593218)"
       style="display:none"><path
         id="Path 4"
         class="s4"
         d="m 299,448 v 23 h 56 v -30 h -18 v -16 h -38 z m 189,-15 v 8 h -18 v 30 h 56 v -46 h -38 z"
         style="fill:#ffffff;fill-opacity:1;stroke:#000000;stroke-width:5;stroke-dasharray:none;stroke-dashoffset:0;stroke-opacity:1" /><ellipse
         style="opacity:0.995;fill:#000000;fill-opacity:1;stroke:#000000;stroke-width:5;stroke-dasharray:none;stroke-opacity:1;paint-order:markers fill stroke"
         id="path5"
         cx="424.80112"
         cy="276.79221"
         rx="140.6821"
         ry="137.66748"
         inkscape:label="path5" /><path
         id="path252"
         style="fill:#ffffff;stroke:none"
         d="m 412,187.35156 c -19.6999,0.1 -24.2,0.40082 -28,1.80078 -2.5,1 -7.80039,3.49922 -11.90039,5.69922 -4.3,2.2 -10.60044,6.90043 -14.90039,10.90039 -4.1,3.8 -9.39883,9.70004 -11.79883,13 -2.3,3.3 -5.80117,9.40004 -7.70117,13.5 -2,4.1 -4.29883,10.40004 -5.29883,14 -1.3,4.8 -1.80078,10.10005 -1.80078,20.5 0,10.19995 0.50117,15.80004 1.70117,20.5 1,3.6 3.99922,11.00005 6.69922,16.5 2.8,5.49999 7.09922,12.49965 9.69922,15.59961 2.7,3 7.40156,7.70004 10.60156,10.5 3.1,2.7 8.1,6.3 11,8 2.8,1.7 8.20005,4.30121 12,5.70117 6.59995,2.7 7.09932,2.69922 30.19922,2.69922 H 436 c 11.99995,-4.79996 18.6,-8.30078 22.5,-10.80078 14.97167,-10.24377 44.28198,-40.17691 34.90039,-85 -3.67929,-19.31615 -15.32496,-37.86725 -31.90039,-50.29883 -2.7,-1.99996 -7.7,-5.10117 -11,-6.70117 -3.3,-1.7 -8,-3.79961 -10.5,-4.59961 -3.6,-1.3 -9.2001,-1.6 -28,-1.5 z m -0.74805,8.32617 c 1.29844,0 2.57305,0.0242 3.74805,0.0742 4.7,0.2 11.4,1.1 15,2 3.6,0.9 10.3,3.50082 15,5.80078 5.79995,2.9 10.70083,6.39926 15.80078,11.19922 26.17022,24.89362 34.34283,69.35649 1.19922,102.5 -6.69995,6.69999 -10.30005,9.40082 -17,12.80078 -4.7,2.3 -11.2,4.89922 -14.5,5.69922 -3.3,0.9 -9.4,1.79922 -13.5,2.19922 -4.4,0.3 -10.6,7.8e-4 -15,-0.69922 -4.1,-0.7 -10.6,-2.40078 -14.5,-3.80078 -3.9,-1.5 -10.1,-4.69883 -14,-7.29883 -3.9,-2.49996 -9.60039,-7.4 -12.90039,-11 -3.2,-3.49996 -7.29961,-8.90039 -9.09961,-11.90039 -1.7,-2.99996 -4.40078,-8.79922 -5.80078,-12.69922 -1.5,-3.99995 -3.19922,-11 -3.69922,-15.5 -0.7,-5.59995 -0.7,-10.90079 0,-16.30078 0.6,-4.39996 1.69961,-10.2 2.59961,-13 0.9,-2.69996 3.50078,-8.6 5.80078,-13 3,-5.79995 6.19966,-10.20001 12.09961,-16 4.4,-4.39996 10.5,-9.49922 13.5,-11.19922 3,-1.79996 8.6,-4.40078 12.5,-5.80078 3.9,-1.3 9.5,-2.90039 12.5,-3.40039 2.25,-0.45 6.35668,-0.67383 10.25195,-0.67383 z m 1.35743,18.70118 a 16.251387,2.8019631 89.99203 0 0 -2.80079,16.25195 16.251387,2.8019631 89.99203 0 0 2.80469,16.25195 16.251387,2.8019631 89.99203 0 0 2.80078,-16.25195 16.251387,2.8019631 89.99203 0 0 -2.80468,-16.25195 z m 19.51367,3.80664 a 2.8019631,16.251387 22.082794 0 0 -8.70899,14.00586 2.8019631,16.251387 22.082794 0 0 -3.51172,16.11328 2.8019631,16.251387 22.082794 0 0 8.70704,-14.00586 2.8019631,16.251387 22.082794 0 0 3.51367,-16.11328 z m -39.50196,0.19922 a 16.251387,2.8019631 67.251337 0 0 3.69922,16.07421 16.251387,2.8019631 67.251337 0 0 8.8711,13.90235 16.251387,2.8019631 67.251337 0 0 -3.70118,-16.07031 16.251387,2.8019631 67.251337 0 0 -8.13671,-13.77149 16.251387,2.8019631 67.251337 0 0 -0.73243,-0.13476 z m -15.80859,10.88476 a 16.251387,2.8019631 45.160573 0 0 -0.72852,0.15039 16.251387,2.8019631 45.160573 0 0 9.47266,13.50196 16.251387,2.8019631 45.160573 0 0 13.44727,9.54687 16.251387,2.8019631 45.160573 0 0 -9.47266,-13.5 16.251387,2.8019631 45.160573 0 0 -12.71875,-9.69922 z m 71.86133,0.24805 a 2.8019631,16.251387 45.152603 0 0 -12.77149,9.6289 2.8019631,16.251387 45.152603 0 0 -9.54492,13.44922 2.8019631,16.251387 45.152603 0 0 13.49805,-9.47461 2.8019631,16.251387 45.152603 0 0 9.54687,-13.44726 2.8019631,16.251387 45.152603 0 0 -0.72851,-0.15625 z m 9.83594,16.17578 a 2.8019631,16.251387 67.243367 0 0 -14.11915,4.20117 2.8019631,16.251387 67.243367 0 0 -13.90234,8.87109 2.8019631,16.251387 67.243367 0 0 16.07031,-3.70117 2.8019631,16.251387 67.243367 0 0 13.9043,-8.87109 2.8019631,16.251387 67.243367 0 0 -0.61719,-0.41797 2.8019631,16.251387 67.243367 0 0 -1.33593,-0.082 z m -91.99415,0.4668 a 16.251387,2.8019631 22.090764 0 0 -1.94726,0.52148 16.251387,2.8019631 22.090764 0 0 14.00586,8.70898 16.251387,2.8019631 22.090764 0 0 16.11328,3.51563 16.251387,2.8019631 22.090764 0 0 -14.00586,-8.70898 16.251387,2.8019631 22.090764 0 0 -14.16602,-4.03711 z m 45.94141,3.44531 c -7.92966,-0.0441 -14.83739,5.40129 -16.64453,13.12305 -2.14007,9.1404 3.53601,18.28598 12.67578,20.42578 9.14032,2.14007 18.28321,-3.53642 20.42188,-12.67774 2.13874,-9.13968 -3.53507,-18.284 -12.67383,-20.42383 -1.23928,-0.29047 -2.50646,-0.43991 -3.7793,-0.44726 z m -0.5293,3.46094 c 1.17879,-0.0377 2.35744,0.0791 3.50586,0.34765 7.26037,1.69904 11.76833,8.96255 10.06836,16.22266 -1.69904,7.26032 -8.96255,11.76833 -16.22265,10.06836 -7.25957,-1.69994 -11.76649,-8.96316 -10.06641,-16.22266 1.39273,-5.94929 6.6078,-10.22149 12.71484,-10.41601 z m 0.38086,5.51367 c -0.20952,10e-4 -0.4198,0.0115 -0.6289,0.0293 -3.45384,0.29126 -6.32724,2.77357 -7.11719,6.14843 -1.00605,4.30172 1.66523,8.60462 5.9668,9.61133 4.30174,1.00739 8.60571,-1.66314 9.61328,-5.96484 1.00728,-4.30237 -1.66429,-8.60662 -5.9668,-9.61328 -0.40867,-0.0956 -0.82293,-0.15909 -1.24023,-0.18946 -0.20866,-0.0152 -0.41743,-0.0228 -0.62696,-0.0215 z m -35.32421,4.80664 a 16.251387,2.8019631 0 0 0 -16.25196,2.80273 16.251387,2.8019631 0 0 0 16.25196,2.80274 16.251387,2.8019631 0 0 0 16.25195,-2.80274 16.251387,2.8019631 0 0 0 -16.25195,-2.80273 z m 71.26757,0 A 16.251387,2.8019631 0 0 0 432,266.18945 a 16.251387,2.8019631 0 0 0 16.25195,2.80078 16.251387,2.8019631 0 0 0 16.25,-2.80078 16.251387,2.8019631 0 0 0 -16.25,-2.80273 z m -15.69922,9.57617 a 16.251387,2.8019631 22.090764 0 0 -1.94726,0.52149 16.251387,2.8019631 22.090764 0 0 14.00391,8.70703 16.251387,2.8019631 22.090764 0 0 16.11132,3.51562 A 16.251387,2.8019631 22.090764 0 0 446.7168,277 16.251387,2.8019631 22.090764 0 0 432.55273,272.96289 Z m -39.76757,0.30078 a 2.8019631,16.251387 67.243367 0 0 -14.11328,4.20117 2.8019631,16.251387 67.243367 0 0 -13.9004,8.86914 2.8019631,16.251387 67.243367 0 0 16.06836,-3.70312 2.8019631,16.251387 67.243367 0 0 13.9043,-8.87109 2.8019631,16.251387 67.243367 0 0 -0.62109,-0.41602 2.8019631,16.251387 67.243367 0 0 -1.33789,-0.0801 z m 5.35937,6.51563 a 2.8019631,16.251387 45.152603 0 0 -12.76758,9.6289 2.8019631,16.251387 45.152603 0 0 -9.54492,13.44532 2.8019631,16.251387 45.152603 0 0 13.49609,-9.47266 2.8019631,16.251387 45.152603 0 0 9.54688,-13.44922 2.8019631,16.251387 45.152603 0 0 -0.73047,-0.15234 z m 28.92188,0.0254 a 16.251387,2.8019631 45.160573 0 0 -0.73047,0.15039 16.251387,2.8019631 45.160573 0 0 9.47461,13.5 16.251387,2.8019631 45.160573 0 0 13.44336,9.54687 16.251387,2.8019631 45.160573 0 0 -9.47071,-13.49804 16.251387,2.8019631 45.160573 0 0 -12.71679,-9.69922 z m -6.88672,4.30469 a 16.251387,2.8019631 67.251337 0 0 3.70117,16.07226 16.251387,2.8019631 67.251337 0 0 8.86719,13.90234 16.251387,2.8019631 67.251337 0 0 -3.69922,-16.07031 16.251387,2.8019631 67.251337 0 0 -8.13672,-13.76953 16.251387,2.8019631 67.251337 0 0 -0.73242,-0.13476 z m -14.84961,0.11523 a 2.8019631,16.251387 22.082794 0 0 -8.70703,14.00586 2.8019631,16.251387 22.082794 0 0 -3.51172,16.11133 2.8019631,16.251387 22.082794 0 0 8.70508,-14.00391 2.8019631,16.251387 22.082794 0 0 3.51367,-16.11328 z m 7.28906,1.42187 a 16.251387,2.8019631 89.99203 0 0 -2.79883,16.25196 16.251387,2.8019631 89.99203 0 0 2.80469,16.25 16.251387,2.8019631 89.99203 0 0 2.79883,-16.25 16.251387,2.8019631 89.99203 0 0 -2.80469,-16.25196 z" /><path
         id="Path 5"
         fill-rule="evenodd"
         class="s1"
         d="m 410.5,54.1 c 2.2,0 10.1,0.4 17.5,1 7.4,0.5 19,2.1 25.8,3.5 6.7,1.3 16.6,3.8 21.9,5.5 5.4,1.7 14.7,5.2 31.6,12.4 l -0.6,7.5 c -0.4,4.1 -1,28.3 -2.2,99.7 l -7,-6.5 c -3.9,-3.5 -9.7,-8.4 -13,-10.7 -3.3,-2.4 -9.4,-6.1 -13.5,-8.4 -4.1,-2.2 -11.1,-5.4 -15.5,-7 -4.4,-1.6 -10.9,-3.6 -14.5,-4.4 -3.6,-0.9 -11.4,-2.1 -17.5,-2.7 -8.4,-0.9 -13.6,-0.9 -22,0 -6.1,0.6 -15.1,2.2 -20,3.4 -4.9,1.3 -13.3,4.2 -18.5,6.4 -5.2,2.3 -12.6,6.2 -16.5,8.8 -3.9,2.5 -10.1,7.1 -13.9,10.2 -3.8,3.1 -8.6,7.7 -14.4,14.7 L 317.6,152 c -0.3,-19.5 -0.9,-44.3 -1.9,-74.5 l 10.4,-4.6 c 5.7,-2.6 15.5,-6.3 21.6,-8.3 6.2,-2 16.8,-4.7 23.5,-6.1 6.8,-1.3 17.5,-2.9 23.8,-3.3 6.3,-0.5 13.3,-1 15.5,-1.1 z m 98.4,22.6 5.8,3.3 c 3.2,1.8 8.9,5.3 12.8,7.8 3.9,2.4 10.8,7.4 15.5,11.1 4.7,3.6 11.2,9.1 20.5,17.9 l -0.7,8.3 c -0.4,4.6 -1.2,20.8 -1.9,35.9 -0.8,16.7 -1.3,58.2 -1.3,105.5 0,47.3 0.5,88.8 1.3,105.5 0.7,15.1 1.5,31.3 2.6,44.3 l -7.1,6.6 c -3.8,3.6 -10.8,9.4 -15.5,12.9 -4.6,3.5 -9.9,7.2 -14.9,10.2 v -21 h -7 L 518.9,378.5 511,371 v -30.5 l 4.6,-7 c 2.5,-3.9 6,-10.1 7.9,-14 1.8,-3.9 4.4,-10.7 5.9,-15.3 1.4,-4.5 3.3,-12.1 4.1,-16.9 0.8,-4.9 1.5,-14.2 1.5,-20.8 0,-6.6 -0.7,-16.1 -1.5,-21 -0.9,-4.9 -3,-13.1 -4.6,-18 -1.7,-4.9 -4.3,-11.7 -5.9,-15 -1.5,-3.3 -4.8,-8.9 -11.6,-19 l -0.7,-53 c -0.4,-29.2 -0.9,-55.4 -1.2,-58.4 z m -196.2,2.4 c 0.8,-0.1 1,1.3 0.7,4.2 -0.3,2.3 -0.7,28.5 -1.6,112.2 l -3.9,6.5 c -2.1,3.6 -5.4,9.9 -7.3,14 -1.9,4.1 -4.6,11.3 -6,16 -1.3,4.7 -3,12.3 -3.7,17 -0.8,5.4 -1,13.8 -0.7,23 0.4,10.8 1.2,16.9 3,24 1.4,5.2 3.9,12.9 5.6,17 1.7,4.1 5.4,11.5 13.2,25 0,0 -0.14962,28.09038 -0.0888,33.90915 -2.18773,1.77118 -3.46393,2.63369 -5.01118,5.59085 L 307,425 h -8 l -0.5,21 -6.5,-4.5 c -3.6,-2.4 -10.5,-7.7 -15.4,-11.7 -8.5,-7.1 -8.8,-7.4 -8.2,-10.8 0.3,-1.9 1,-7.8 1.5,-13 0.5,-5.2 1.5,-19.4 2.3,-31.5 0.8,-14.9 1.2,-49.8 1.2,-108 0,-58.1 -0.4,-93.1 -1.2,-108 -0.8,-12.1 -1.8,-26.3 -2.3,-31.5 -0.5,-5.2 -1.2,-11.1 -1.5,-13 -0.5,-3.4 -0.2,-3.7 7.8,-10.3 4.5,-3.7 11.4,-8.9 15.3,-11.6 3.8,-2.7 9.9,-6.7 13.5,-8.9 3.5,-2.3 7,-4.1 7.7,-4.1 z m -50,37.2 c 0.2,0.2 -0.1,4.1 -0.6,8.8 -0.6,4.6 -1.5,16.7 -2.1,26.9 -0.6,10.2 -1.5,40.1 -2,66.5 -0.5,27.7 -0.5,68.4 0,96 0.5,26.4 1.3,56.1 1.9,66 0.6,9.9 1.3,20.5 1.6,23.5 0.3,3 0.8,7.3 1.7,13.5 l -3.7,-3.5 c -2.1,-1.9 -7.4,-8 -11.8,-13.5 -4.5,-5.5 -10.6,-13.8 -13.6,-18.5 -3,-4.7 -8.3,-14.1 -11.8,-21 -3.4,-6.9 -7.8,-17.2 -9.8,-23 -2,-5.8 -4.7,-14.5 -6,-19.5 -1.3,-4.9 -3.2,-14.2 -4.2,-20.5 -1.3,-8.3 -1.8,-17.1 -1.8,-31.5 0,-14.5 0.5,-23.1 1.8,-31.5 1,-6.3 3,-15.8 4.4,-21 1.3,-5.2 4.1,-14.2 6.2,-20 2.1,-5.8 6.1,-15.2 8.9,-21 2.8,-5.8 7.6,-14.5 10.7,-19.5 3.1,-4.9 8.5,-12.6 12,-17 3.4,-4.4 8.8,-10.8 12,-14.3 3.2,-3.4 6,-6.1 6.2,-5.9 z m 306.2,6.2 3.5,4 c 2,2.2 6.1,7.4 9.3,11.5 3.1,4.1 8.1,11.3 11.1,16 2.9,4.7 7.3,12.3 9.6,17 2.4,4.7 6.1,13.5 8.4,19.5 2.2,6.1 4.9,14.2 6.1,18 1.1,3.9 2.7,10.4 3.5,14.5 0.9,4.1 2.3,12.9 3.1,19.5 0.8,6.6 1.5,17.4 1.5,24 0,6.6 -0.7,17.4 -1.5,24 -0.8,6.6 -2.2,15.4 -3.1,19.5 -0.8,4.1 -2.4,10.7 -3.5,14.5 -1.2,3.9 -3.9,12 -6.1,18 -2.2,6.1 -6.4,15.5 -9.2,21 -2.8,5.5 -8.4,15 -12.5,21 -4,6.1 -10.1,14.3 -13.5,18.2 -3.4,4 -6.2,7.2 -6.3,7 -0.2,-0.1 0.2,-6.5 0.7,-14.2 0.5,-7.7 1.4,-34.7 2.1,-60 0.7,-27.8 0.9,-67.8 0.5,-101 -0.4,-30.2 -1.1,-64.9 -1.6,-77 -0.6,-12.1 -1.2,-24.9 -1.6,-28.5 z m -174.1,27.6 c 2.2,-0.1 2.2,0 2.2,28.9 h 31 v -14.5 c 0,-13.1 0.2,-14.5 1.8,-14.5 1,0 6.2,1.1 11.7,2.5 5.5,1.4 13.9,4.3 18.5,6.3 4.7,2.1 12.5,6.4 17.3,9.5 4.8,3.1 11.8,8.6 22.2,18.6 l -86.2,0.1 c -56.9,0 -86.3,-0.3 -86.3,-1 0,-0.5 2.9,-3.5 6.3,-6.6 3.4,-3 10.1,-8.1 14.7,-11.2 4.7,-3.1 12.6,-7.4 17.5,-9.5 5,-2.2 13.1,-5 18,-6.2 5,-1.3 10.1,-2.4 11.3,-2.4 z m -76.3,195.7 9,8.8 c 5,4.9 12.2,11 16.1,13.5 3.8,2.6 10.3,6.4 14.4,8.4 4.2,2.1 11.4,5.1 16,6.7 4.7,1.6 12.4,3.6 17,4.5 5.2,0.9 13.7,1.6 21.5,1.6 7.8,0 16.5,-0.7 21.5,-1.6 4.7,-0.9 12.1,-2.8 16.5,-4.2 4.4,-1.4 12.1,-4.6 17,-7.1 5,-2.5 12,-6.6 15.5,-9.2 3.6,-2.5 10,-8 22.1,-19.7 v 12.3 c -0.1,10.5 0.26524,10.7555 -1.13476,11.63476 C 503.28777,371.86024 500.3,373.6 495,379 v 46 h -7 v 16 h -18 v 6 H 355 v -6 h -18 v -16 h -7 v -22.5 c 0,-18 0.014,-22.53476 -0.49513,-25.5628 C 325.48933,372.86194 322.7108,372 318,372 Z m 7.1,0.3 h 174 l -6.8,6.5 c -3.7,3.5 -10.7,9 -15.5,12.2 -4.8,3.1 -12.6,7.4 -17.2,9.4 -4.7,2.1 -13,4.9 -18.5,6.3 -5.5,1.4 -11,2.6 -12.3,2.6 -2.2,0 -2.2,-0.2 -2.2,-29 h -30 v 14.5 c 0,13.1 -0.2,14.5 -1.8,14.5 -0.9,0 -6.2,-1.2 -11.7,-2.6 -5.5,-1.4 -13.9,-4.2 -18.5,-6.3 -4.7,-2 -12.4,-6.2 -17,-9.3 -4.7,-3 -11.7,-8.5 -15.5,-12.1 z m -7.48882,28.58756 c 2.7,0 4.8,0.7 9.9,5 L 328.1,425 h -19.43476 l -0.18882,-45.21244 2.53476,-2.5 c 2.2,-1.9 4.3,-2.6 7.1,-2.6 z m 189,0 c 2.7,0 4.8,0.7 9.9,5 L 517.1,425 h -20 l -0.18882,-45.21244 3.1,-2.5 c 2.2,-1.9 4.3,-2.6 7.1,-2.6 z M 355.1,449 h 115 v 16 h -115 z m -0.2,18 h 115.2 l -0.3,2.2 c -0.2,1.7 -1.3,2.4 -5.2,3.4 -2.8,0.7 -10.2,2.3 -16.5,3.5 -9.8,1.9 -15,2.3 -35,2.3 -20.1,0 -25.3,-0.3 -35.5,-2.2 -6.6,-1.2 -14.3,-2.8 -17,-3.5 -3.9,-1.1 -5.1,-1.8 -5.4,-3.5 z"
         sodipodi:nodetypes="ccccccccccsccccccscccccccccccccccsccccccccccccccscccccccccccsccccscccccccccscscscccccscsccsscccscsccsccsscccsccccccccssscccscccsccccccccssscsccscccccccccccscsccccscccccccccccsccccccccssccsssccccscccccsscccccsccccccccccscccc"
         style="fill:#ffffff;fill-opacity:1;stroke:#000000;stroke-width:5;stroke-dasharray:none;stroke-opacity:1" /><path
         id="Path 6"
         class="s2"
         d="m 355,448 c 0,0.7 19.8,1 57.5,1 37.7,0 57.5,-0.3 57.5,-1 0,-0.7 -19.8,-1 -57.5,-1 -37.7,0 -57.5,0.3 -57.5,1 z m 0,18 c 0,0.7 19.8,1 57.5,1 37.7,0 57.5,-0.3 57.5,-1 0,-0.7 -19.8,-1 -57.5,-1 -37.7,0 -57.5,0.3 -57.5,1 z"
         style="fill:#000000;fill-opacity:1" /><g
         id="path10"
         style="opacity:0.995"><path
           style="color:#000000;fill:#000000;-inkscape-stroke:none;paint-order:markers fill stroke"
           d="m 266.45312,115.94141 c -0.76136,-0.45667 -1.43767,2.45426 -1.89648,8.05664 -2.8451,34.74064 -3.74125,95.16279 -3.19726,165.19726 0.49354,63.54139 -1.63445,93.27168 1.63281,118.34375 2.43077,18.65311 6.12181,14.4322 3.12304,6.79688 -0.0807,-0.20546 0.67588,-11.75741 1.46289,-21.48242 2.94506,-36.39144 4.80674,-218.90489 1.95899,-257.00586 -0.98395,-13.16462 -2.10509,-19.31911 -3.08399,-19.90625 z m 298.67383,2.38671 c -0.84811,0.0961 -0.10471,16.36119 -0.63672,28.56836 -1.31213,30.1103 -1.37368,209.87466 -0.082,238.4043 0.48597,10.7339 -0.1972,29.5344 0.22657,27.66992 6.26122,-27.54771 7.03576,-116.52071 7.06835,-135.43164 0.10627,-61.60635 -5.62713,-159.31847 -6.57617,-159.21094 z m -251.28515,219.16602 -0.0312,5.42969 c -2.27714,9.29747 -0.13098,23.52794 -0.10938,24.33984 l 0.0625,2.35547 c 0.0164,0.616 -3.00112,3.70077 -1.00976,4.23828 1.41862,0.38292 3.98405,-0.63915 4.00195,-1.24609 0.0105,-0.35804 0.1772,-16.43726 0.1582,-17.17578 l -0.36523,-14.16797 z m 195.33008,2.8125 -2.70508,3.77344 -0.8856,12.9271 c -0.019,0.73852 0.82461,18.10021 0.15625,17.17383 -0.76321,-1.05783 3.18375,0.79037 4.60238,0.40745 1.99135,-0.53751 -1.10623,-1.54277 -1.08983,-2.15877 l 0.0625,-2.35352 c 0.0216,-0.8119 2.16776,-15.04237 -0.10938,-24.33984 z"
           id="path24" /><path
           style="color:#000000;fill:#000000;-inkscape-stroke:none;paint-order:markers fill stroke"
           d="m 266.4082,113.8125 c -0.4301,-0.0201 -0.87052,0.045 -1.20117,0.21289 -0.66129,0.33571 -0.93047,0.75698 -1.13476,1.09766 -0.4086,0.68134 -0.57089,1.29935 -0.75586,2.08789 -0.36996,1.57707 -0.65086,3.7571 -0.88477,6.61328 -2.85854,34.90471 -3.74733,95.32461 -3.20312,165.38672 0.49313,63.48857 -1.6601,93.19974 1.65039,118.60351 0.61795,4.74204 1.31548,8.06631 2.00976,10.34961 0.34714,1.14165 0.68684,2.0192 1.07031,2.73828 0.38348,0.71908 0.62983,1.41526 1.87696,1.88672 0.62356,0.23573 1.6466,0.15096 2.2539,-0.26953 0.60731,-0.42048 0.83493,-0.90694 0.98438,-1.29492 0.2989,-0.77596 0.3152,-1.41781 0.29101,-2.17383 -0.0446,-1.39271 -0.41939,-3.1176 -1.11914,-5.02539 0.002,-0.0619 0.002,-0.0986 0.006,-0.18555 0.0136,-0.33331 0.0406,-0.83327 0.0762,-1.45898 0.0712,-1.25142 0.18193,-3.01445 0.32032,-5.07422 0.27678,-4.11954 0.66222,-9.43165 1.05468,-14.28125 2.98546,-36.89058 4.8496,-218.66158 1.95899,-257.33594 -0.45442,-6.07986 -0.94118,-10.32787 -1.4375,-13.64453 l -0.12695,-1.20703 c -0.27139,-1.6819 -0.54186,-2.98154 -0.84571,-4 -0.15192,-0.50923 -0.30815,-0.94646 -0.52343,-1.37305 -0.21529,-0.42659 -0.42992,-0.90185 -1.17969,-1.35156 -0.2916,-0.1749 -0.71052,-0.28068 -1.14063,-0.30078 z m 244.85742,219.91406 -3.82617,5.33789 -3.05859,4.26563 -0.92969,13.57617 v 0.0469 c -0.0104,0.40236 0.009,0.57277 0.0293,1.1211 0.0201,0.54833 0.0471,1.28299 0.0801,2.14062 0.0659,1.71526 0.1488,3.91834 0.21093,6.06446 0.0621,2.14611 0.10444,4.24219 0.0899,5.6914 -0.005,0.46261 -0.0222,0.69231 -0.0371,0.98633 -0.29128,0.59463 -0.332,1.26891 -0.22656,1.64063 0.1233,0.43469 0.27801,0.64693 0.41015,0.83007 0.1182,0.16383 0.28593,0.3906 0.6836,0.62305 0.39766,0.23245 1.14966,0.38683 1.74804,0.19727 0.0701,-0.0222 0.0662,-0.058 0.12891,-0.082 0.0629,0.0153 0.0429,0.0103 0.10742,0.0273 0.52688,0.13901 1.17063,0.31575 1.85156,0.44141 0.68094,0.12565 1.35592,0.28468 2.36719,0.0117 0.39673,-0.10708 0.78471,-0.2236 1.25586,-0.58007 0.47116,-0.35648 1.03138,-1.24167 0.98438,-2.07618 -0.047,-0.8345 -0.41746,-1.28065 -0.66407,-1.5625 -0.24661,-0.28184 -0.45861,-0.44493 -0.65039,-0.58984 -0.18388,-0.13894 -0.26849,-0.1905 -0.41406,-0.28906 l 0.0371,-1.41602 c -0.008,0.28484 0.0258,-0.22466 0.082,-0.70898 0.0562,-0.48432 0.13312,-1.15191 0.21875,-1.96094 0.17125,-1.61805 0.37395,-3.80068 0.50391,-6.26172 0.25243,-4.78022 0.21713,-10.55973 -0.91407,-15.50976 z m 53.74024,-217.52929 -0.11914,0.0137 0.24023,-0.0137 z m -0.11914,0.0137 c -0.86637,0.0982 -1.37193,0.64856 -1.58789,0.96094 -0.21597,0.31237 -0.28323,0.52039 -0.3418,0.70117 -0.11714,0.36154 -0.15361,0.62866 -0.19336,0.93554 -0.0795,0.61377 -0.12038,1.33981 -0.15039,2.23633 -0.06,1.79304 -0.0614,4.22461 -0.0547,7.03125 0.0134,5.61328 0.0651,12.70728 -0.19726,18.72656 -1.32807,30.47605 -1.39215,209.65692 -0.082,238.59375 0.2384,5.26569 0.19178,12.64025 0.13476,18.44336 -0.0285,2.90156 -0.0598,5.40936 -0.0566,7.10743 0.002,0.84903 0.009,1.47018 0.0391,1.94531 0.008,0.11878 0.0149,0.22892 0.0332,0.36523 0.0183,0.13632 -0.0504,0.1991 0.2207,0.75781 0.0678,0.13968 0.15936,0.32903 0.41602,0.58594 0.12832,0.12846 0.30428,0.27589 0.55078,0.40039 0.2465,0.1245 0.89912,0.22848 0.90039,0.22852 0.001,4e-5 0.65415,-0.0643 0.90234,-0.16992 0.2482,-0.10561 0.42912,-0.23459 0.5625,-0.34961 0.26677,-0.23006 0.37182,-0.40674 0.44922,-0.53711 0.30961,-0.52148 0.24999,-0.59292 0.28125,-0.73047 3.23632,-14.23897 4.94021,-43.2655 5.92188,-71.35352 0.98167,-28.08801 1.18288,-55.06807 1.19921,-64.54687 0.0533,-30.87122 -1.35477,-70.71605 -2.89453,-102.85352 -0.76987,-16.06873 -1.57165,-30.20739 -2.24218,-40.33398 -0.33527,-5.0633 -0.6367,-9.12214 -0.88672,-11.93359 -0.12502,-1.40573 -0.23653,-2.49463 -0.33789,-3.2754 -0.0507,-0.39038 -0.0948,-0.69456 -0.15625,-0.98632 -0.0307,-0.14589 -0.0558,-0.27427 -0.14649,-0.51563 -0.0454,-0.12068 -0.0873,-0.26676 -0.29297,-0.55078 -0.2057,-0.28402 -0.85394,-1.01156 -1.99023,-0.88281 z M 266.49805,127.3223 c 0.30761,2.68734 0.62077,4.75963 0.91406,8.68359 2.80489,37.5275 0.94568,220.78355 -1.95899,256.67578 -0.26858,3.31889 -0.49128,6.5419 -0.7207,9.76172 -2.4516,-23.91325 -0.77808,-53.5119 -1.24219,-113.26367 -0.52974,-68.2004 0.3459,-126.88423 3.00782,-161.85742 z m 299.78711,40.42968 c 0.13752,2.71337 0.26011,4.29427 0.39648,7.14063 1.53764,32.09323 2.94364,71.9075 2.89063,102.64258 -0.0163,9.43211 -0.21822,36.39316 -1.19727,64.40625 -0.44277,12.66865 -1.11838,25.31416 -1.9375,36.89648 -1.00354,-32.80292 -1.0161,-160.02574 -0.15234,-211.08594 z M 311.74805,330.918 l -0.0371,6.56445 -0.0312,5.39649 c -1.1312,4.95003 -1.16649,10.72954 -0.91407,15.50976 0.12996,2.46104 0.33266,4.64367 0.50391,6.26172 0.0856,0.80903 0.16252,1.47662 0.21875,1.96094 0.0562,0.48432 0.0896,0.99382 0.082,0.70898 l 0.0488,1.86328 c -0.0309,0.0495 -0.035,0.0607 -0.0742,0.1211 -0.2287,0.35224 -0.57347,0.85175 -0.89453,1.43554 -0.32105,0.5838 -0.70146,1.21732 -0.70898,2.30079 -0.004,0.54173 0.16174,1.25642 0.61132,1.82617 0.44959,0.56975 1.08456,0.89715 1.64649,1.04883 1.4821,0.40005 2.68714,0.0816 3.77734,-0.29493 0.54511,-0.18826 1.03982,-0.40837 1.52149,-0.72656 0.24083,-0.15909 0.48097,-0.33822 0.74218,-0.63672 0.26122,-0.2985 0.6224,-0.76706 0.64649,-1.58398 0.0459,-1.56645 0.20591,-15.43877 0.1582,-17.29297 l -0.38281,-14.82422 z m 196.24414,22.08398 c 0.14345,2.707 0.1302,5.47207 -0.002,7.97461 -0.0245,0.46352 -0.0665,0.74364 -0.0957,1.18555 -0.0254,-0.69094 -0.0494,-1.51695 -0.0723,-2.11133 -0.033,-0.8594 -0.0623,-1.59394 -0.082,-2.13281 -0.0197,-0.53642 -0.0218,-1.06149 -0.0273,-0.85156 -2e-5,9.6e-4 3e-5,-0.005 0,-0.004 z"
           id="path25"
           sodipodi:nodetypes="scsssssssssssccssssccsssssccccccssccssssccssssssccsssccccccsssssscssccsssssssscscssssssssscsscsccssscccccsssccsscssssscccccsccsscc" /></g><path
         style="opacity:0.995;fill:#000000;fill-opacity:1;stroke:#000000;stroke-width:0.753654;stroke-dasharray:none;stroke-opacity:1;paint-order:markers fill stroke"
         d=""
         id="path15" /><g
         id="path20"
         style="opacity:0.995"><path
           style="color:#000000;fill:#000000;-inkscape-stroke:none;paint-order:markers fill stroke"
           d="m 505.34214,178.91435 c 0.0853,-5.12093 2.65792,-85.87261 2.67537,-86.78798 l 1.58774,102.12096 c -0.39894,-1.36446 -2.43575,-5.05472 -3.12519,-6.16056 0.36941,-3.15953 -1.24267,-5.97588 -1.13792,-9.17242 z"
           id="path21" /><path
           style="color:#000000;fill:#000000;-inkscape-stroke:none;paint-order:markers fill stroke"
           d="m 507.92383,92.125 c 0,5.4e-5 0,0.0019 0,0.002 -0.002,0.106814 -0.0451,1.474844 -0.11719,3.779297 -0.0722,2.305643 -0.17439,5.553763 -0.29687,9.443363 -0.24497,7.7792 -0.57044,18.11861 -0.89844,28.58984 -0.656,20.94246 -1.32051,42.40467 -1.36328,44.97266 -0.10585,3.22997 1.50366,6.04235 1.13867,9.16406 l -0.004,0.0332 0.0176,0.0273 c 0.34187,0.54834 1.02371,1.7471 1.66797,2.97656 0.64426,1.22946 1.25349,2.49742 1.44726,3.16016 l 0.1836,-0.0273 -1.58789,-102.117187 v -0.004 z m 0.0625,4.072266 1.51758,97.607424 c -0.26461,-0.7281 -0.70753,-1.7068 -1.26954,-2.7793 -0.64111,-1.22347 -1.31011,-2.40172 -1.66015,-2.96484 0.35669,-3.18168 -1.24192,-5.99203 -1.13867,-9.14258 v -0.002 c 0.0425,-2.55294 0.70728,-24.02829 1.36328,-44.97071 0.328,-10.4712 0.65542,-20.81064 0.90039,-28.58984 0.11878,-3.77214 0.21535,-6.867149 0.28711,-9.158204 z"
           id="path23" /></g><g
         id="path22"
         style="opacity:0.995"><path
           style="color:#000000;fill:#000000;-inkscape-stroke:none;paint-order:markers fill stroke"
           d="m 313.28602,123.50114 c 0.013,-0.292 -1.20335,-4.33325 -1.16514,-8.57102 0.0382,-4.23778 -4.58733,-5.48784 2.22886,-5.95087 2.60992,-0.17729 3.55099,0.48489 2.83343,4.88504 l -1.62853,9.98625 0.73115,68.88489 -2.61042,3.22 z"
           id="path18" /><path
           style="color:#000000;fill:#000000;-inkscape-stroke:none;paint-order:markers fill stroke"
           d="m 314.33984,108.8457 c -1.7091,0.1161 -2.70234,0.27657 -3.26562,0.54297 -0.28164,0.1332 -0.46373,0.30292 -0.54102,0.51367 -0.0773,0.21076 -0.0465,0.44012 0.0332,0.67969 0.31894,0.95829 1.44053,2.27735 1.42187,4.34766 -0.0192,2.13201 0.27556,4.20933 0.57422,5.79101 0.14933,0.79084 0.30038,1.45671 0.41211,1.94336 0.0559,0.24333 0.10125,0.44293 0.13281,0.58789 0.0158,0.0725 0.0275,0.13039 0.0352,0.17383 0.008,0.0434 0.009,0.0785 0.01,0.0703 v 0.002 0.004 l 0.39258,72.82617 2.875,-3.54687 -0.73242,-68.91992 1.62695,-9.97656 c 0.36044,-2.21026 0.32202,-3.50222 -0.18945,-4.25391 -0.25574,-0.37585 -0.63301,-0.59966 -1.09961,-0.71094 -0.4666,-0.11128 -1.02693,-0.11896 -1.68555,-0.0742 z m 0.0195,0.26563 c 0.64635,-0.0439 1.18206,-0.0341 1.60352,0.0664 0.42146,0.10052 0.72533,0.28401 0.94141,0.60157 0.43215,0.63511 0.5036,1.87456 0.14648,4.06445 l -1.62891,9.99609 0.73047,68.84961 -2.3457,2.89258 -0.38672,-72.07422 c 0.002,-0.0447 -0.005,-0.077 -0.0137,-0.12695 -0.009,-0.0499 -0.021,-0.11131 -0.0371,-0.18555 -0.0323,-0.14848 -0.079,-0.34703 -0.13477,-0.58984 -0.11148,-0.48563 -0.26179,-1.14986 -0.41015,-1.93555 -0.29672,-1.57138 -0.5893,-3.63252 -0.57031,-5.73828 0.0195,-2.16747 -1.15338,-3.59165 -1.4336,-4.43359 -0.07,-0.21049 -0.0828,-0.37397 -0.0351,-0.50391 0.0476,-0.12994 0.1585,-0.24991 0.40234,-0.36523 0.48767,-0.23065 1.47289,-0.40217 3.17187,-0.51758 z"
           id="path19" /></g></g><path
       id="path30"
       style="opacity:0.995;fill:#000000;fill-opacity:1;fill-rule:evenodd;stroke:#ff0000;stroke-width:0;stroke-opacity:0;paint-order:markers fill stroke"
       d="m 363.65793,231.81568 c -8.07646,-0.004 -16.13249,0.26114 -21.21464,0.79571 -19.8104,2.08377 -40.9521,6.84026 -58.17929,13.08945 -11.01846,3.99696 -29.69524,12.13174 -30.65917,13.35332 -0.40603,0.51453 -1.32865,0.93516 -2.05079,0.93516 -3.54692,0 -28.98101,17.50446 -44.18202,30.40761 -5.55176,4.71253 -6.93559,6.62269 -7.3541,10.15137 -0.17049,1.43742 -0.53348,1.66583 -2.68653,1.68437 -2.07447,0.0179 -3.05477,0.57159 -5.87343,3.32364 -8.31794,8.12133 -23.24864,27.28225 -30.91074,39.66894 -18.49261,29.89553 -32.16135,69.66504 -35.47577,103.21445 -0.92194,9.33209 -0.92457,42.98258 -0.004,52.91016 3.69654,39.86861 21.06292,84.8154 45.72968,118.35469 16.23303,22.07199 31.82186,37.46635 56.11893,55.41894 l 7.81211,5.77227 v 14.28574 14.28574 h 32.14394 c 29.70538,0 32.41883,0.094 35.76972,1.24688 4.64749,1.59896 25.82365,5.85456 33.16523,6.66503 3.10172,0.34243 17.30747,0.54153 31.56972,0.44297 25.15573,-0.17384 26.22007,-0.23332 35.57285,-2.01386 5.30263,-1.00951 13.08254,-2.77035 17.28808,-3.91289 l 7.64668,-2.07813 33.07909,-0.1873 33.0791,-0.18731 0.008,-14.78203 0.008,-14.78203 4.8125,-3.14043 c 7.50596,-4.89878 18.62588,-13.77512 28.12441,-22.44922 8.45869,-7.72452 8.69911,-8.0212 9.30781,-11.4502 0.60822,-3.42632 0.6813,-3.51532 2.7248,-3.35917 1.79567,0.1372 2.60439,-0.39229 5.59043,-3.65723 14.76983,-16.14931 31.59304,-43.31924 40.91308,-66.0748 13.37579,-32.65797 19.61277,-66.32522 18.69082,-100.8957 -0.83111,-31.16423 -6.47047,-58.13509 -18.33399,-87.6791 -16.24427,-40.45458 -44.45886,-76.5998 -80.83863,-103.56036 -11.03085,-8.1748 -34.4824,-22.64142 -35.59199,-21.95566 -0.291,0.17985 -4.75393,-1.45813 -9.91758,-3.63945 -26.21709,-11.07509 -47.20441,-16.53302 -74.54315,-19.38672 -5.16607,-0.53925 -13.2626,-0.81116 -21.33906,-0.81485 z m 0.30352,4.80977 c 3.00358,-0.0158 5.76166,0.0395 8.0705,0.17363 30.86164,1.79322 52.97981,6.61803 79.78905,17.40567 l 15.292,6.15371 -0.0246,4.3039 c -0.0454,7.62943 -1.73132,81.64104 -2.19023,96.15704 l -0.44433,14.06015 -5.65196,-4.97109 c -27.04827,-23.78983 -54.99515,-35.27632 -90.42713,-37.16563 -13.86183,-0.73914 -35.54564,2.74645 -50.41504,8.10469 -14.76607,5.32102 -25.7794,11.27825 -38.16503,20.64316 -3.75866,2.84197 -9.558,7.79763 -12.88711,11.0127 l -6.05253,5.8461 -0.45117,-25.43653 c -0.24798,-13.98985 -0.73479,-36.65622 -1.08145,-50.36993 -0.34666,-13.7137 -0.71043,-28.50408 -0.80937,-32.86718 l -0.18047,-7.93242 8.64336,-3.78985 c 23.58451,-10.33871 44.38637,-16.24241 68.81873,-19.53164 7.93521,-1.06828 19.15605,-1.74918 28.1668,-1.79648 z m 111.91248,28.01777 c 0.75613,0 11.54471,6.62127 19.44004,11.93008 9.25995,6.22639 20.28803,15.19967 30.85878,25.10977 l 4.53633,4.25195 -0.72461,9.77402 c -2.3667,31.90253 -2.82327,51.70128 -3.16094,137.10293 -0.40131,101.49794 0.24124,136.31417 3.44531,186.50625 l 0.34043,5.31973 -7.14628,6.47636 c -3.9303,3.56209 -9.88248,8.64913 -13.22617,11.30391 -3.34371,2.65477 -8.35537,6.41287 -11.13711,8.35215 l -5.05723,3.52598 v -11.00587 -11.00586 h -3.98945 -3.98946 v -25.54863 -25.54863 l -4.6539,-4.13711 -4.65527,-4.13574 v -16.46777 -16.46778 l 4.37773,-6.87285 c 16.75941,-26.31276 24.45289,-57.00417 22.23594,-88.70859 -0.79055,-11.3055 -1.72077,-16.99218 -4.3832,-26.78184 -4.02175,-14.78765 -9.76252,-27.82669 -17.53418,-39.82617 l -3.98535,-6.15234 -0.66719,-46.04277 c -0.36738,-25.32353 -0.86318,-53.89807 -1.10196,-63.49766 -0.26108,-10.4966 -0.19018,-17.45352 0.17774,-17.45352 z m -225.765,1.33028 c 0.2934,0 0.38102,5.3104 0.1955,11.80156 -0.18551,6.49115 -0.61309,35.21875 -0.95019,63.83809 l -0.6125,52.03515 -3.97851,7.14082 c -9.22407,16.56034 -14.29131,29.51939 -17.74336,45.37422 -1.59978,7.34762 -1.84416,10.10983 -2.10821,23.81914 -0.18302,9.50285 0.009,18.51297 0.49492,23.27089 0.86952,8.51044 4.0099,21.70483 7.38829,31.03653 2.08972,5.77218 9.46581,20.78438 13.84824,28.18457 l 2.12187,3.5834 -0.052,19.02305 c -0.0331,11.89006 -0.30021,19.10844 -0.71094,19.24863 -0.36144,0.12337 -1.55009,1.52355 -2.64277,3.11172 l -1.98789,2.8875 v 25.97793 25.97792 h -4.22598 -4.22734 l -0.42793,4.08653 c -0.23495,2.24784 -0.42656,7.03611 -0.42656,10.63945 0,3.60335 -0.273,6.55156 -0.60704,6.55156 -1.40993,0 -22.77294,-16.77904 -26.79277,-21.04374 l -1.79921,-1.90997 0.95703,-8.30429 c 3.70803,-32.15209 4.92121,-73.46183 4.92051,-167.5502 -7.4e-4,-94.40226 -1.29614,-138.03733 -4.96426,-167.22344 l -1.00215,-7.9789 4.50351,-4.24649 c 5.82333,-5.49001 22.27394,-17.8241 32.37363,-24.27304 4.35711,-2.78214 8.16267,-5.05859 8.45606,-5.05859 z m -57.14297,45.21288 c 0.41064,0 0.52933,0.86764 0.29532,2.16153 -0.71529,3.95503 -2.37224,29.19693 -3.0666,46.70996 -2.68197,67.64473 -2.68077,161.97183 0.004,231.7205 0.69807,18.13448 2.40266,43.98338 3.03652,46.04415 0.19685,0.63997 0.0857,1.16347 -0.24746,1.16347 -1.33101,0 -17.16295,-19.90968 -24.05429,-30.25039 -21.96973,-32.96653 -36.67215,-75.04954 -39.26005,-112.37187 -1.39837,-20.16702 -0.55983,-45.28622 2.0207,-60.50625 6.30349,-37.1781 21.90485,-74.34964 43.39589,-103.39356 6.28086,-8.48823 17.02549,-21.27754 17.87597,-21.27754 z m 350.0273,8.67208 c 0.83515,0.0395 9.10219,10.88988 15.69667,20.60214 12.43042,18.30738 21.14326,36.30115 28.80664,59.4918 6.70635,20.29454 10.19318,39.03645 11.72089,63.00137 1.49055,23.38181 -1.73868,52.67846 -8.44648,76.62949 -7.99474,28.54617 -19.36839,52.18468 -37.03437,76.97129 -3.1896,4.47523 -7.0214,9.48326 -8.51484,11.1289 l -2.71524,2.99141 0.36641,-6.31641 c 1.81193,-31.17989 3.03039,-88.54656 3.02969,-142.62226 -0.001,-68.57439 -1.12997,-125.75366 -3.06934,-155.42324 -0.23594,-3.60955 -0.16539,-6.46989 0.15997,-6.45449 z m -158.3285,25.40781 6.64864,1.5914 c 22.37362,5.35598 40.06987,14.25529 56.68358,28.50586 3.74841,3.21524 6.81543,6.09784 6.81543,6.40664 0,0.30881 -33.28631,0.49217 -73.9703,0.40743 -90.09131,-0.18764 -106.88397,-0.36338 -106.88397,-1.1211 0,-0.73458 5.97934,-5.87164 12.98008,-11.15215 13.99026,-10.55258 29.62016,-17.9408 47.59452,-22.49707 9.10087,-2.30696 8.97279,-2.33213 9.47461,1.84571 0.23061,1.91992 0.42169,9.25033 0.42519,16.29003 l 0.005,12.79962 h 19.61503 19.61504 l 0.0492,-13.79629 c 0.0271,-7.58825 0.25049,-15.03098 0.49765,-16.53887 z m -53.35584,41.68418 33.32655,0.18457 33.32792,0.1832 6.31641,3.11445 c 9.12391,4.49726 16.13232,9.34688 22.85117,15.8129 14.0305,13.50254 23.56,30.46304 27.76073,49.40878 1.9961,9.00256 2.45194,26.0766 0.9379,35.13125 -3.06117,18.30709 -11.85432,35.62989 -25.1836,49.6125 -8.62682,9.04969 -14.46701,13.45915 -24.4412,18.45157 l -8.66523,4.33671 -33.36621,-0.0465 c -36.26684,-0.0509 -34.24529,0.14418 -42.67401,-4.11523 -12.74115,-6.43865 -28.10111,-20.79278 -35.41699,-33.09824 -4.82363,-8.11344 -10.34912,-20.72237 -12.22539,-27.9002 -1.67238,-6.39779 -2.38632,-26.38263 -1.31524,-36.80468 0.88792,-8.63985 3.80431,-17.89762 8.76915,-27.84004 4.96326,-9.93927 8.71773,-15.23347 16.56347,-23.3543 8.73047,-9.03659 15.45275,-14.06907 25.53769,-19.12011 z m 31.95937,8.06777 c -5.00151,-0.0851 -9.67925,0.21428 -13.17285,0.9543 -20.22212,4.28343 -36.33061,14.54527 -49.03964,31.24023 -4.20207,5.51995 -10.89204,18.59085 -12.74083,24.89239 -3.49598,11.91595 -4.19005,26.84075 -1.78554,38.43027 6.94668,33.48231 32.12022,58.3206 65.17108,64.30566 10.59434,1.91849 25.3506,0.845 35.56875,-2.58672 12.64809,-4.2478 21.27547,-9.46131 30.20663,-18.25742 12.58221,-12.39195 20.25262,-25.45355 24.22383,-41.24531 1.20537,-4.79325 1.42641,-7.54293 1.39589,-17.3332 -0.0322,-10.35577 -0.22546,-12.34652 -1.7623,-18.09883 -5.58139,-20.89084 -17.83603,-38.58947 -34.27402,-49.50039 -4.31105,-2.86152 -14.19573,-7.5075 -20.06757,-9.43223 -6.15263,-2.01677 -15.3876,-3.227 -23.72343,-3.36875 z m 0.99667,20.72656 c 0.68804,0.15257 1.37153,1.21324 1.95235,3.16094 2.01246,6.74863 1.6346,28.58441 -0.56602,32.69629 -1.03569,1.93522 -2.42281,1.40753 -3.37558,-1.28379 -1.24565,-3.51862 -1.23597,-28.7539 0.0123,-32.28339 0.59651,-1.68665 1.28891,-2.44261 1.97695,-2.29005 z m 21.50449,4.05372 c 1.70324,-0.23734 1.64791,4.22793 -1.14023,12.7955 -2.07294,6.36987 -7.02409,16.99726 -9.32422,20.0129 -6.41138,8.40575 -3.79503,-7.91703 3.75703,-23.43907 2.99477,-6.15526 5.38268,-9.18474 6.70742,-9.36933 z m -43.71718,0.4334 c 4.06869,0 16.50485,28.60071 14.59746,33.57128 -0.66723,1.73877 -2.10821,1.1005 -4.11386,-1.82246 -6.95693,-10.13873 -14.09236,-31.74882 -10.4836,-31.74882 z m -18.3791,12.26913 c 1.41781,-0.0932 4.69094,1.76729 9.75488,6.08809 8.22273,7.01601 17.12902,18.37625 15.9291,20.31777 -1.34599,2.17785 -7.98565,-2.50436 -17.00644,-11.9916 -8.24913,-8.67568 -11.04056,-14.25899 -8.67754,-14.41426 z m 80.98671,0.42383 c 1.39685,0.18148 1.26662,2.12571 -0.79024,5.38399 -2.40947,3.81685 -13.07364,14.76838 -17.78163,18.26152 -3.6475,2.70629 -7.0752,3.77206 -7.0752,2.1998 0,-3.90598 12.7335,-18.17611 21.56875,-24.17187 1.85249,-1.25713 3.2402,-1.78232 4.07832,-1.67344 z m 11.50077,18.27247 c 1.04005,0.0167 1.71395,0.2577 1.8963,0.77382 0.8094,2.29106 -10.74778,8.94274 -22.18672,12.76953 -6.02602,2.01596 -12.20214,2.68963 -12.20214,1.33165 0,-4.13624 25.21224,-14.99176 32.49256,-14.875 z m -104.05662,0.48671 c 4.4582,-1.3e-4 15.11435,3.29337 24.26484,8.11426 5.99591,3.15891 8.3998,5.15603 7.86953,6.53789 -0.57581,1.50055 -3.02088,1.35986 -9.44179,-0.54414 -9.94085,-2.94779 -21.52059,-8.63995 -24.20742,-11.9 -1.25817,-1.52659 -0.51161,-2.20795 1.51484,-2.20801 z m 51.33926,3.97305 c 6.9569,-0.20885 13.99729,3.16383 17.56288,10.22519 2.12696,4.21227 2.59545,11.38143 1.04726,16.04258 -1.43375,4.31664 -5.03675,8.4274 -9.26542,10.57383 -4.22122,2.14265 -10.62489,2.65053 -15.14434,1.20039 -4.218,-1.35342 -9.32283,-6.08968 -11.26152,-10.44805 -2.15897,-4.85359 -2.15897,-11.47609 0,-16.32968 3.23181,-7.26541 10.10423,-11.05542 17.06114,-11.26426 z m 0.11347,4.49394 c -3.51165,0.0107 -6.76003,1.51634 -9.74941,4.51856 -4.89295,4.91394 -5.9353,10.42891 -3.11582,16.48418 1.68897,3.62733 4.98512,6.71919 8.53398,8.00625 3.61498,1.31105 7.26905,1.03152 11.03183,-0.84356 11.13618,-5.54939 11.07985,-21.36731 -0.0943,-26.56992 -2.29805,-1.06995 -4.49926,-1.60194 -6.60625,-1.59551 z m 0.46621,5.63145 c 2.46907,-0.0237 4.77265,0.9978 6.71016,3.02012 1.75415,1.83094 1.96328,2.49963 1.96328,6.28359 0,3.78096 -0.20915,4.45434 -1.95645,6.27813 -1.0763,1.12342 -3.02094,2.33748 -4.32168,2.69882 -3.10389,0.86227 -3.22123,0.85052 -6.55019,-0.66035 -7.20728,-3.27106 -6.75767,-14.08568 0.7041,-16.93535 1.17152,-0.44741 2.32848,-0.67421 3.45078,-0.68496 z m -39.19999,5.98828 c 11.1398,0.007 13.71203,0.19451 15.8498,1.15391 3.16398,1.41996 2.88533,2.52399 -0.93926,3.71054 -1.79737,0.55764 -7.07981,1.00158 -13.58027,1.14161 -13.60394,0.29301 -20.27949,-0.81028 -20.27949,-3.35235 0,-1.931 5.22178,-2.66281 18.94922,-2.65371 z m 79.78905,0 c 11.1398,0.007 13.71202,0.19451 15.8498,1.15391 3.16398,1.41996 2.88532,2.52399 -0.93926,3.71054 -1.79737,0.55764 -7.0798,1.00158 -13.58027,1.14161 -13.60393,0.29301 -20.27949,-0.81028 -20.27949,-3.35235 0,-1.931 5.22178,-2.66281 18.94922,-2.65371 z m -18.10567,10.29766 c 7.38436,0 30.0619,9.89196 31.54649,13.76074 0.21137,0.55085 -0.0337,1.26547 -0.54415,1.58867 -0.5104,0.32319 -1.0777,0.55944 -1.26055,0.525 -10.23446,-1.92925 -22.10214,-6.52649 -28.87499,-11.18633 -3.75919,-2.58639 -4.14792,-4.68808 -0.8668,-4.68808 z m -43.4328,0.43886 c 0.96212,0.11676 1.36446,0.54127 1.36446,1.29063 0,2.24586 -12.57785,9.16975 -22.60645,12.44414 -7.69393,2.51211 -11.3039,2.76401 -11.3039,0.79023 0,-3.06346 17.21762,-11.71085 27.82362,-13.97402 2.23864,-0.47769 3.76014,-0.66773 4.72227,-0.55098 z m 4.81933,7.46484 c 1.78991,-0.25362 1.77325,1.56608 -0.875,5.76271 -2.67974,4.24652 -14.58783,16.15327 -18.83437,18.833 -9.69728,6.11938 -6.51127,-1.83724 5.5959,-13.97539 6.52309,-6.53978 11.81217,-10.29423 14.11347,-10.62032 z m 32.71679,0.0752 c 4.65635,0 25.00039,20.65322 25.00039,25.38046 0,4.49018 -11.69813,-4.13126 -20.90429,-15.40684 -3.45094,-4.22665 -5.69297,-7.88018 -5.69297,-9.27636 0,-0.38386 0.71886,-0.69726 1.59687,-0.69726 z m -7.49218,4.81796 c 3.45694,0.29988 13.30822,21.28256 14.34863,30.92031 0.31448,2.91315 0.20118,3.49043 -0.68633,3.49043 -1.7583,0 -4.30664,-3.31483 -7.40879,-9.64003 -5.4548,-11.12224 -8.85504,-23.92742 -6.56796,-24.7338 0.0977,-0.0344 0.20293,-0.0466 0.31445,-0.0369 z m -17.2375,0.12441 c 0.24893,-0.023 0.4686,0.053 0.65352,0.2379 2.49528,2.49527 -6.52572,27.32352 -12.06953,33.21855 -2.11378,2.2477 -2.68516,1.84049 -2.68516,-1.91132 0,-8.65984 10.3673,-31.19942 14.10117,-31.54513 z m 8.38086,1.87442 c 0.70682,0.0952 1.42887,1.04388 2.06719,2.83281 1.35182,3.78862 1.32951,26.72536 -0.0301,30.90527 -1.32188,4.06395 -2.90718,4.27768 -4.03731,0.54415 -1.22406,-4.04383 -1.20298,-28.51477 0.0274,-31.99356 0.57489,-1.6255 1.26604,-2.38388 1.97285,-2.28867 z m -91.23788,70.97754 h 90.89472 c 56.21625,0 90.89471,0.2373 90.89471,0.62344 0,0.87112 -10.25276,9.51835 -17.17324,14.48398 -8.38359,6.01542 -23.49532,13.51318 -33.73535,16.73711 -9.30474,2.92946 -19.95107,5.45263 -20.53651,4.86718 -0.20022,-0.20021 -0.36505,-7.64429 -0.36505,-16.54296 v -16.1793 h -19.28144 -19.2828 v 15.97832 c 0,13.6266 -0.14719,16.03578 -1.00215,16.36387 -1.23743,0.47484 -10.96042,-1.868 -20.27539,-4.88496 -16.44175,-5.3252 -36.7586,-17.61033 -47.50976,-28.72872 z m -11.50351,3.38105 7.68359,7.3377 c 12.7169,12.14395 23.3128,19.3358 38.66543,26.24453 20.49849,9.22438 40.01616,12.98215 62.28905,11.99297 11.87432,-0.52737 17.88567,-1.36063 27.30136,-3.78574 20.62633,-5.31255 40.97365,-15.78943 54.91582,-28.27481 3.23056,-2.89302 7.49533,-6.71354 9.47597,-8.49024 l 3.60117,-3.23066 v 9.7125 c 0,5.34226 -0.27018,9.71387 -0.59883,9.71387 -0.32865,0 -2.8708,2.12351 -5.65059,4.71953 l -5.05449,4.7209 v 25.2 25.20136 h -3.98945 -3.98945 v 9.30918 9.30782 h -9.97363 -9.97363 v 3.325 3.325 h -62.16874 -62.16874 v -3.325 -3.325 h -9.97364 -9.97362 v -9.30782 -9.30918 h -3.96758 -3.96758 l -0.18867,-26.22128 -0.18731,-26.21992 -1.99472,-2.12188 c -2.06353,-2.19502 -7.76694,-5.26046 -9.8082,-5.27187 -0.99425,-0.006 -1.16348,-0.66989 -1.16348,-4.55957 0,-2.50371 0.19416,-7.27761 0.43067,-10.60938 z m -3.93066,29.16895 c 2.07658,-0.15776 4.1737,0.49144 6.19609,1.95644 3.46744,2.5118 3.52324,2.97839 3.52324,29.08418 v 20.85234 h -8.64336 -8.64335 v -23.8205 -23.82051 l 1.4957,-1.36309 c 1.93884,-1.76593 3.9951,-2.73111 6.07168,-2.88886 z m 212.14371,10e-4 c 1.8566,-0.003 3.77687,0.66579 5.89395,2.00839 l 3.12265,1.98106 v 23.95039 23.95176 h -8.64335 -8.64336 v -23.93262 -23.93261 l 2.75898,-1.99883 c 1.86248,-1.34918 3.65454,-2.02448 5.51113,-2.02754 z m -230.35054,57.2117 h 18.95058 18.94922 v 8.97559 8.97695 h 9.9955 9.99551 l -0.0834,14.62754 -0.0834,14.62754 h -28.86132 -28.86269 v -23.6045 z m 212.10679,0 h 18.617 18.61699 v 23.60312 23.6045 h -28.83945 -28.84082 l -0.11348,-14.62754 -0.11347,-14.62754 h 10.33594 10.33729 v -8.97695 z M 302.54876,684.8647 h 61.83652 61.83651 v 6.65 6.64864 h -61.83651 -61.83652 v -6.64864 z m 61.83652,20.67461 c 38.07685,0.0137 60.26413,0.25248 59.30175,0.63848 -0.84574,0.33921 -7.42927,1.83058 -14.62891,3.31406 -12.18423,2.51056 -14.21678,2.7394 -29.37949,3.3045 -8.95962,0.33391 -17.03829,0.56582 -17.95254,0.51542 -0.91424,-0.0504 -7.49777,-0.28939 -14.6289,-0.53183 -7.36263,-0.25032 -15.69452,-0.93606 -19.28144,-1.58731 -10.06912,-1.82816 -22.18742,-4.48759 -23.27226,-5.10644 -0.55803,-0.31833 25.80216,-0.55913 59.84179,-0.54688 z" /><rect
       style="fill:#000000;stroke-width:1.40697"
       id="rect1"
       width="13.298153"
       height="276.4115"
       x="193.12401"
       y="53.393143" /><rect
       style="fill:#000000;stroke-width:1.40697"
       id="rect1-5"
       width="13.298153"
       height="276.4115"
       x="530"
       y="53.39333" /><path
       style="fill:none;stroke:#000000;stroke-width:15.0001;stroke-dasharray:none;stroke-dashoffset:0;stroke-opacity:1"
       id="path1"
       transform="matrix(-0.00132639,0.99999912,-0.99997806,-0.00662374,0,0)"
       sodipodi:type="arc"
       sodipodi:cx="161.48367"
       sodipodi:cy="-199.11342"
       sodipodi:rx="103.01605"
       sodipodi:ry="68.377747"
       sodipodi:start="0.38946515"
       sodipodi:end="2.7068664"
       sodipodi:arc-type="arc"
       d="m 256.78509,-173.15082 a 103.01605,68.377747 0 0 1 -92.97031,42.39764 103.01605,68.377747 0 0 1 -95.765159,-39.56212"
       sodipodi:open="true" /><path
       style="fill:none;stroke:#000000;stroke-width:10;stroke-dasharray:none;stroke-dashoffset:0;stroke-opacity:1"
       id="path1-0"
       transform="matrix(-0.00207322,0.99999785,-0.99999102,-0.00423774,0,0)"
       sodipodi:type="arc"
       sodipodi:cx="165.35349"
       sodipodi:cy="-202.32193"
       sodipodi:rx="127.60709"
       sodipodi:ry="132.38924"
       sodipodi:start="0.18867049"
       sodipodi:end="2.8535858"
       sodipodi:arc-type="arc"
       d="M 290.69612,-177.49191 A 127.60709,132.38924 0 0 1 171.68889,-70.095957 127.60709,132.38924 0 0 1 43.002283,-164.71786"
       sodipodi:open="true" /><path
       style="fill:none;stroke:#000000;stroke-width:5;stroke-dasharray:none;stroke-dashoffset:0;stroke-opacity:1"
       id="path1-0-5"
       transform="matrix(-0.00264419,0.9999965,-0.99999448,-0.00332268,0,0)"
       sodipodi:type="arc"
       sodipodi:cx="164.43683"
       sodipodi:cy="-206.51155"
       sodipodi:rx="154.47107"
       sodipodi:ry="204.39528"
       sodipodi:start="0.52355244"
       sodipodi:end="2.5856643"
       sodipodi:open="true"
       sodipodi:arc-type="arc"
       d="M 298.21628,-104.32211 A 154.47107,204.39528 0 0 1 166.93729,-2.1430523 154.47107,204.39528 0 0 1 33.227421,-98.645605" /><path
       style="fill:none;stroke:#000000;stroke-width:15.0001;stroke-dasharray:none;stroke-dashoffset:0;stroke-opacity:1"
       id="path1-2"
       transform="matrix(0.00132639,0.99999912,0.99997806,-0.00662374,0,0)"
       sodipodi:type="arc"
       sodipodi:cx="148.38773"
       sodipodi:cy="523.48517"
       sodipodi:rx="103.01605"
       sodipodi:ry="68.377747"
       sodipodi:start="0.38946515"
       sodipodi:end="2.7068664"
       sodipodi:arc-type="arc"
       d="m 243.68914,549.44777 a 103.01605,68.377747 0 0 1 -92.9703,42.39764 103.01605,68.377747 0 0 1 -95.765166,-39.56212"
       sodipodi:open="true" /><path
       style="fill:none;stroke:#000000;stroke-width:10;stroke-dasharray:none;stroke-dashoffset:0;stroke-opacity:1"
       id="path1-0-6"
       transform="matrix(0.00207322,0.99999785,0.99999102,-0.00423774,0,0)"
       sodipodi:type="arc"
       sodipodi:cx="150.5334"
       sodipodi:cy="520.28064"
       sodipodi:rx="127.60709"
       sodipodi:ry="132.38924"
       sodipodi:start="0.18867049"
       sodipodi:end="2.8535858"
       sodipodi:arc-type="arc"
       d="M 275.87604,545.11066 A 127.60709,132.38924 0 0 1 156.86881,652.50661 127.60709,132.38924 0 0 1 28.182199,557.88471"
       sodipodi:open="true" /><path
       style="fill:none;stroke:#000000;stroke-width:5;stroke-dasharray:none;stroke-dashoffset:0;stroke-opacity:1"
       id="path1-0-5-4"
       transform="matrix(0.00264419,0.9999965,0.99999448,-0.00332268,0,0)"
       sodipodi:type="arc"
       sodipodi:cx="148.95551"
       sodipodi:cy="516.09875"
       sodipodi:rx="154.47107"
       sodipodi:ry="204.39528"
       sodipodi:start="0.52355244"
       sodipodi:end="2.5856643"
       sodipodi:open="true"
       sodipodi:arc-type="arc"
       d="M 282.73495,618.28819 A 154.47107,204.39528 0 0 1 151.45597,720.46725 154.47107,204.39528 0 0 1 17.746098,623.9647" /></g><style
     id="style1">
		.s0 { fill: #000000 } 
		.s1 { fill: #d8feff } 
		.s2 { fill: #001d36 } 
		.s3 { fill: #cf54fe } 
		.s4 { fill: #74838c } 
		.s5 { fill: #ffffff } 
	</style></svg>
